<svg width="70" height="70" viewBox="0 0 70 70" fill="none" xmlns="http://www.w3.org/2000/svg">
<path d="M36.7236 20.6818C36.7236 27.2716 31.3815 32.6136 24.7917 32.6136C18.202 32.6136 12.8599 27.2716 12.8599 20.6818C12.8599 14.0921 18.202 8.75 24.7917 8.75C31.3815 8.75 36.7236 14.0921 36.7236 20.6818Z" fill="#ECECEC"/>
<path d="M11.5587 32.7327C6.66435 33.4864 2.91666 37.7164 2.91666 42.8217V60.4543H46.6667V42.8217C46.6667 37.7164 42.9189 33.4864 38.0246 32.7327C34.7512 36.3252 30.0347 38.5796 24.7916 38.5796C19.5486 38.5796 14.8321 36.3252 11.5587 32.7327Z" fill="#ECECEC"/>
<path d="M49.5833 60.4543H67.0833V42.8217C67.0833 37.7164 63.3356 33.4864 58.4412 32.7327C55.9264 35.4927 52.5598 37.4629 48.7571 38.2278C49.2913 39.6574 49.5833 41.2053 49.5833 42.8217V60.4543Z" fill="#ECECEC"/>
<path d="M44.6949 32.6028C42.9364 31.184 40.804 30.2097 38.4684 29.8501L37.374 29.6815C37.2169 29.5447 37.0635 29.4038 36.9138 29.259C38.631 26.8366 39.6402 23.8771 39.6402 20.6818C39.6402 17.4866 38.631 14.527 36.9138 12.1046C39.0609 10.0279 41.9854 8.75 45.2084 8.75C51.7982 8.75 57.1402 14.0921 57.1402 20.6818C57.1402 27.2716 51.7982 32.6136 45.2084 32.6136C45.0364 32.6136 44.8652 32.61 44.6949 32.6028Z" fill="#ECECEC"/>
</svg>
